name not saved
datacolumns 19
datarows 40
range 20.28 20.319
endheader
time	ground_force1_vx	ground_force1_vy	ground_force1_vz	ground_force1_px	ground_force1_py	ground_force1_pz	ground_force2_vx	ground_force2_vy	ground_force2_vz	ground_force2_px	ground_force2_py	ground_force2_pz	ground_torque1_x	ground_torque1_y	ground_torque1_z	ground_torque2_x	ground_torque2_y	ground_torque2_z
20.28	-9.703615034	514.2050422	-27.53806002	-0.1162459524	0	0.2305737143	3.857616406	271.0372187	16.1866662	-0.2153536924	0	-0.2296256979	0	-0.2069578222	0	0	0.04018744292	0
20.281	-9.67362348	514.0178394	-27.57645685	-0.1162785968	0	0.2305630571	3.866528786	270.9775173	16.25417925	-0.2153612567	0	-0.2296328464	0	-0.2072491712	0	0	0.04326080148	0
20.282	-9.643600996	513.8306586	-27.61363805	-0.1163111265	0	0.2305527213	3.875038444	270.9172517	16.32162388	-0.2153691155	0	-0.2296399938	0	-0.2074680614	0	0	0.04631133552	0
20.283	-9.613588304	513.6434904	-27.6496203	-0.1163435439	0	0.2305426964	3.883149633	270.8564788	16.38898768	-0.2153772724	0	-0.229647135	0	-0.2076202809	0	0	0.04933669065	0
20.284	-9.583626155	513.4563258	-27.68442153	-0.1163758514	0	0.2305329711	3.890867	270.7952575	16.4562584	-0.2153857302	0	-0.2296542647	0	-0.2077117071	0	0	0.05233455415	0
20.285	-9.553755257	513.2691557	-27.71806094	-0.1164080517	0	0.2305235338	3.898195564	270.7336483	16.52342396	-0.2153944913	0	-0.2296613778	0	-0.2077482985	0	0	0.05530265606	0
20.286	-9.524016207	513.0819715	-27.75055889	-0.1164401476	0	0.2305143727	3.90514069	270.6717131	16.59047252	-0.2154035573	0	-0.2296684688	0	-0.2077360874	0	0	0.05823877014	0
20.287	-9.494449424	512.8947649	-27.78193696	-0.1164721423	0	0.2305054753	3.911708072	270.6095156	16.65739244	-0.2154129292	0	-0.2296755323	0	-0.2076811716	0	0	0.06114071458	0
20.288	-9.465095075	512.707528	-27.81221783	-0.1165040391	0	0.2304968288	3.91790371	270.5471207	16.72417231	-0.2154226074	0	-0.2296825629	0	-0.2075897069	0	0	0.06400635247	0
20.289	-9.435993015	512.5202535	-27.84142531	-0.1165358416	0	0.2304884204	3.923733884	270.4845945	16.79080101	-0.2154325916	0	-0.2296895549	0	-0.2074678991	0	0	0.06683359213	0
20.29	-9.407182709	512.3329348	-27.8695843	-0.1165675536	0	0.2304802365	3.929205137	270.4220045	16.85726763	-0.215442881	0	-0.2296965028	0	-0.2073219959	0	0	0.06962038714	0
20.291	-9.378703169	512.1455658	-27.8967207	-0.1165991791	0	0.2304722637	3.934324248	270.3594191	16.9235616	-0.2154534742	0	-0.2297034008	0	-0.2071582795	0	0	0.07236473625	0
20.292	-9.350592889	511.9581413	-27.92286147	-0.1166307225	0	0.230464488	3.939098211	270.2969077	16.9896726	-0.2154643691	0	-0.2297102433	0	-0.2069830584	0	0	0.07506468306	0
20.293	-9.322889772	511.770657	-27.94803448	-0.1166621882	0	0.2304568953	3.943534211	270.2345405	17.05559064	-0.2154755629	0	-0.2297170243	0	-0.2068026599	0	0	0.07771831551	0
20.294	-9.29563107	511.5831095	-27.97226857	-0.116693581	0	0.2304494713	3.947639604	270.1723886	17.12130605	-0.2154870524	0	-0.2297237381	0	-0.2066234223	0	0	0.08032376522	0
20.295	-9.268853318	511.3954964	-27.99559345	-0.1167249059	0	0.2304422014	3.951421891	270.1105237	17.18680948	-0.2154988336	0	-0.2297303788	0	-0.2064516869	0	0	0.08287920666	0
20.296	-9.242592271	511.2078163	-28.01803968	-0.1167561681	0	0.2304350711	3.954888693	270.0490179	17.25209195	-0.215510902	0	-0.2297369404	0	-0.206293791	0	0	0.08538285622	0
20.297	-9.216882843	511.0200689	-28.03963863	-0.1167873731	0	0.2304280656	3.958047734	269.9879438	17.31714481	-0.2155232526	0	-0.2297434171	0	-0.2061560595	0	0	0.08783297111	0
20.298	-9.191759045	510.8322553	-28.06042243	-0.1168185266	0	0.23042117	3.960906811	269.9273744	17.38195978	-0.2155358797	0	-0.2297498028	0	-0.2060447977	0	0	0.0902278483	0
20.299	-9.167253932	510.6443775	-28.08042394	-0.1168496347	0	0.2304143692	3.963473774	269.8673829	17.44652897	-0.2155487772	0	-0.2297560915	0	-0.2059662837	0	0	0.09256582332	0
20.3	-9.143399543	510.456439	-28.09967668	-0.1168807036	0	0.2304076483	3.965756502	269.8080424	17.51084486	-0.2155619382	0	-0.2297622772	0	-0.2059267604	0	0	0.09484526916	0
20.301	-9.120226847	510.2684445	-28.11821482	-0.1169117398	0	0.2304009922	3.96776288	269.7494263	17.57490032	-0.2155753554	0	-0.229768354	0	-0.205932428	0	0	0.09706459508	0
20.302	-9.097765697	510.0804002	-28.13607309	-0.11694275	0	0.2303943857	3.969500773	269.6916077	17.63868864	-0.2155890212	0	-0.2297743157	0	-0.2059894367	0	0	0.09922224562	0
20.303	-9.076044775	509.8923135	-28.15328679	-0.1169737414	0	0.2303878139	3.970978009	269.6346596	17.70220349	-0.2156029271	0	-0.2297801565	0	-0.2061038784	0	0	0.1013166996	0
20.304	-9.055091548	509.7041935	-28.16989169	-0.1170047211	0	0.2303812617	3.972202348	269.5786545	17.76543897	-0.2156170644	0	-0.2297858702	0	-0.2062817791	0	0	0.1033464691	0
20.305	-9.034932226	509.5160505	-28.18592401	-0.1170356967	0	0.230374714	3.973181465	269.5236646	17.8283896	-0.2156314239	0	-0.2297914511	0	-0.2065290914	0	0	0.105310099	0
20.306	-9.015591716	509.3278965	-28.20142036	-0.1170666761	0	0.2303681561	3.973922927	269.4697617	17.8910503	-0.2156459959	0	-0.229796893	0	-0.2068516866	0	0	0.1072061658	0
20.307	-8.997093592	509.1397447	-28.2164177	-0.1170976673	0	0.230361573	3.974434169	269.4170168	17.95341646	-0.2156607704	0	-0.2298021901	0	-0.2072553463	0	0	0.1090332773	0
20.308	-8.979460052	508.9516101	-28.23095328	-0.1171286788	0	0.2303549501	3.974722473	269.3655003	18.01548385	-0.2156757368	0	-0.2298073367	0	-0.2077457552	0	0	0.1107900723	0
20.309	-8.962711891	508.7635092	-28.2450646	-0.1171597191	0	0.2303482729	3.974794946	269.3152817	18.07724871	-0.2156908844	0	-0.2298123268	0	-0.2083284927	0	0	0.1124752199	0
20.31	-8.94686847	508.5754598	-28.25878934	-0.1171907971	0	0.2303415269	3.974658501	269.2664296	18.13870771	-0.2157062019	0	-0.2298171548	0	-0.2090090252	0	0	0.1140874197	0
20.311	-8.931947689	508.3874816	-28.27216533	-0.117221922	0	0.230334698	3.974319834	269.2190117	18.19985793	-0.2157216778	0	-0.2298218149	0	-0.209792698	0	0	0.1156254013	0
20.312	-8.917965967	508.1995955	-28.28523049	-0.1172531033	0	0.2303277723	3.973785405	269.1730945	18.26069693	-0.2157373005	0	-0.2298263017	0	-0.2106847274	0	0	0.1170879254	0
20.313	-8.904938223	508.011824	-28.29802278	-0.1172843506	0	0.2303207358	3.973061421	269.1287434	18.32122268	-0.2157530577	0	-0.2298306097	0	-0.2116901929	0	0	0.1184737832	0
20.314	-8.892877854	507.8241913	-28.31058013	-0.1173156739	0	0.2303135752	3.972153814	269.0860225	18.38143358	-0.2157689374	0	-0.2298347333	0	-0.2128140294	0	0	0.1197817977	0
20.315	-8.881796729	507.6367229	-28.32294042	-0.1173470834	0	0.2303062772	3.971068222	269.0449945	18.44132849	-0.215784927	0	-0.2298386673	0	-0.2140610193	0	0	0.1210108245	0
20.316	-8.871705177	507.4494457	-28.33514139	-0.1173785897	0	0.2302988289	3.969809977	269.0057208	18.50090668	-0.2158010138	0	-0.2298424066	0	-0.2154357851	0	0	0.1221597526	0
20.317	-8.86261198	507.2623884	-28.34722064	-0.1174102034	0	0.2302912175	3.968384085	268.9682613	18.56016787	-0.2158171851	0	-0.229845946	0	-0.2169427817	0	0	0.1232275061	0
20.318	-8.85452437	507.0755807	-28.3592155	-0.1174419355	0	0.2302834308	3.96679521	268.9326743	18.61911219	-0.2158334279	0	-0.2298492805	0	-0.2185862891	0	0	0.1242130453	0
20.319	-8.847448032	506.8890539	-28.37116307	-0.1174737973	0	0.2302754567	3.96504766	268.8990163	18.67774019	-0.2158497292	0	-0.2298524054	0	-0.2203704051	0	0	0.1251153686	0
